<svg xmlns="http://www.w3.org/2000/svg" viewBox="0 0 426.39 95" width="426.39" height="95"><defs><style>.cls-1{fill:#080505;}.cls-2{fill:#faf7f7;}.cls-3{fill:#3c8000;}.cls-4{fill:#fb0505;}</style></defs><title>Asset 1</title><g id="Layer_2" data-name="Layer 2"><g id="Layer_1-2" data-name="Layer 1"><g id="LEMpFA.tif"><path class="cls-1" d="M57.7,52.11c-10.26-9.66-19.28-19.56-29-29.82,5.7-.08,11.13-1.73,16.66-2.82,9.34-1.85,16.64,1.06,21.93,9a53.33,53.33,0,0,1,6,12.49,7.23,7.23,0,0,0,3.68,4.33c3.6,2,7,4.45,10.42,6.72,0,6-1.94,11.39-4.86,16.47-1.91,3.33-4.14,4.41-7.23.89-3.71-4.23-8.77-8.15-12.67-12.21,8.55-2.57,11.1-4.3,10.22-10.53C68.6,49.67,62.61,50.8,57.7,52.11Z"/><path class="cls-1" d="M14.7,67c-.84-1-1.64-2-2.51-2.92C5.81,57.19,5.54,54,10.7,46.31c6.64-3.46,13.32-7.88,12.15-17.2Q34.64,40,45.54,51.83c-8.13-.47-16.09-.66-23.33-4.7-2.74,4.8-.72,7.48,3.77,9.21,8.29,3.19,17.89,3,26.52,2.46a201.91,201.91,0,0,1,16,16A115,115,0,0,1,35.93,75c-7.24-1-13.54-4.65-20.24-7.17"/><path class="cls-2" d="M51.51,58.79c-8.64.5-17.24.73-25.52-2.46-4.49-1.73-6.51-4.4-3.77-9.21,7.24,4,15.2,5.23,23.33,5.7Z"/><path class="cls-2" d="M58.7,52.11c4.92-1.31,9.9-2.43,14.23-5.47.88,6.23-.67,8-9.22,10.53Z"/></g><path class="cls-3" d="M145.49,69.68H136l-3.75-9.76H115.11l-3.55,9.76h-9.21l16.74-43h9.18Zm-16-17-5.92-16-5.81,16Z"/><path class="cls-3" d="M149.68,69.68v-43h8.24V42.18a11.66,11.66,0,0,1,9-4.34A12.14,12.14,0,0,1,176.36,42q3.72,4.12,3.72,11.83,0,8-3.8,12.29a11.85,11.85,0,0,1-9.22,4.31A11.4,11.4,0,0,1,161.8,69a12.57,12.57,0,0,1-4.47-3.94v4.57Zm8.18-16.24q0,4.84,1.52,7.15a6.52,6.52,0,0,0,5.69,3.28,5.83,5.83,0,0,0,4.65-2.33q1.92-2.33,1.92-7.35,0-5.34-1.94-7.7a6.12,6.12,0,0,0-5-2.36,6.21,6.21,0,0,0-4.93,2.3Q157.86,48.74,157.86,53.44Z"/><path class="cls-3" d="M207.21,69.68V65a12,12,0,0,1-4.47,3.93,12.53,12.53,0,0,1-5.85,1.44A11.43,11.43,0,0,1,191.26,69a8.13,8.13,0,0,1-3.61-3.87,17.27,17.27,0,0,1-1.11-6.89V38.54h8.24V52.85q0,6.57.45,8a4.38,4.38,0,0,0,1.66,2.35,5.09,5.09,0,0,0,3,.87A6.48,6.48,0,0,0,203.72,63,5.89,5.89,0,0,0,206,60.08q.62-1.72.62-8.4V38.54h8.24V69.68Z"/><path class="cls-3" d="M220.49,60.8l8.27-1.26a6.05,6.05,0,0,0,2.14,3.65,7.23,7.23,0,0,0,4.52,1.25,8.15,8.15,0,0,0,4.81-1.17,2.62,2.62,0,0,0,1.08-2.2,2.16,2.16,0,0,0-.59-1.55A6.58,6.58,0,0,0,238,58.42q-10-2.2-12.64-4a8,8,0,0,1-3.7-7,8.63,8.63,0,0,1,3.2-6.8q3.2-2.76,9.91-2.76,6.39,0,9.5,2.08a10.64,10.64,0,0,1,4.28,6.16l-7.77,1.44a4.8,4.8,0,0,0-1.89-2.79,6.92,6.92,0,0,0-4-1,9,9,0,0,0-4.66.91,2,2,0,0,0-.94,1.67,1.82,1.82,0,0,0,.82,1.5q1.11.82,7.7,2.32T247,53.82a7.62,7.62,0,0,1,2.58,6.13A9.41,9.41,0,0,1,246,67.31q-3.58,3.08-10.59,3.08-6.36,0-10.07-2.58A11.88,11.88,0,0,1,220.49,60.8Z"/><path class="cls-3" d="M274.83,59.77,283,61.15A13.48,13.48,0,0,1,278,68a14.69,14.69,0,0,1-8.55,2.36q-8.12,0-12-5.31a17.83,17.83,0,0,1-3.08-10.73q0-7.74,4-12.12a13.33,13.33,0,0,1,10.23-4.38q6.95,0,11,4.59t3.84,14.06H262.83a8.33,8.33,0,0,0,2,5.7,6.23,6.23,0,0,0,4.75,2,5,5,0,0,0,3.25-1.06A6.52,6.52,0,0,0,274.83,59.77Zm.47-8.33A7.94,7.94,0,0,0,273.45,46a5.95,5.95,0,0,0-8.74.1A7.6,7.6,0,0,0,263,51.44Z"/><path class="cls-3" d="M290,69.68v-43h8.68v43Z"/><path class="cls-3" d="M306.93,69.68v-43h13.93q7.92,0,10.32.65a11.27,11.27,0,0,1,6.19,4.21,13.35,13.35,0,0,1,2.49,8.37,14,14,0,0,1-1.44,6.66,11.78,11.78,0,0,1-3.65,4.24,12.57,12.57,0,0,1-4.5,2,49.57,49.57,0,0,1-9,.62h-5.66V69.68ZM315.61,34v12.2h4.75q5.13,0,6.86-.67a5.7,5.7,0,0,0,2.71-2.11,5.78,5.78,0,0,0,1-3.34,5.55,5.55,0,0,0-1.38-3.87,6,6,0,0,0-3.49-1.91,41.76,41.76,0,0,0-6.25-.29Z"/><path class="cls-3" d="M347,26.69h15.86a31,31,0,0,1,8.18.82,14.39,14.39,0,0,1,6.48,4,18.78,18.78,0,0,1,4.1,7A31.71,31.71,0,0,1,383,48.6a28.26,28.26,0,0,1-1.32,9.15,19,19,0,0,1-4.6,7.59,15.26,15.26,0,0,1-6.1,3.43,26.24,26.24,0,0,1-7.68.91H347ZM355.64,34V62.44h6.48a23.6,23.6,0,0,0,5.25-.41,8,8,0,0,0,3.5-1.79,9.11,9.11,0,0,0,2.27-4.15,28,28,0,0,0,.88-7.87,25.67,25.67,0,0,0-.88-7.65,9.84,9.84,0,0,0-2.46-4.16,8.26,8.26,0,0,0-4-2,39.38,39.38,0,0,0-7.12-.41Z"/><path class="cls-3" d="M390.38,26.69h17.18a49.66,49.66,0,0,1,7.61.43,11.19,11.19,0,0,1,4.49,1.77,11,11,0,0,1,3.3,3.59,9.74,9.74,0,0,1,1.32,5,10.19,10.19,0,0,1-6,9.32,11.32,11.32,0,0,1,6,3.9,10.35,10.35,0,0,1,2.11,6.48,12.79,12.79,0,0,1-1.36,5.7,11.49,11.49,0,0,1-3.72,4.43,12.3,12.3,0,0,1-5.82,2q-2.17.23-10.47.29H390.38Zm8.68,7.16v9.94h5.69q5.07,0,6.3-.15a5.73,5.73,0,0,0,3.5-1.54,4.54,4.54,0,0,0,1.28-3.36,4.72,4.72,0,0,0-1.1-3.24A5,5,0,0,0,411.47,34q-1.29-.15-7.42-.15Zm0,17.09v11.5h8a39.11,39.11,0,0,0,6-.26,5.38,5.38,0,0,0,3.15-1.71,5.28,5.28,0,0,0,1.22-3.65,5.61,5.61,0,0,0-.94-3.28,5.31,5.31,0,0,0-2.71-2q-1.78-.62-7.7-.62Z"/><path class="cls-4" d="M47.5,0A47.5,47.5,0,1,0,95,47.5,47.5,47.5,0,0,0,47.5,0ZM86,47.5a38.3,38.3,0,0,1-8.3,23.84l-54-54A38.47,38.47,0,0,1,86,47.5Zm-77,0a38.3,38.3,0,0,1,8.3-23.84l54,54A38.47,38.47,0,0,1,9,47.5Z"/></g></g></svg>