<svg xmlns="http://www.w3.org/2000/svg" viewBox="0 0 426.39 95"><defs><style>.cls-1{fill:none;}.cls-2{fill:#fff;}</style></defs><title>Asset 2</title><g id="Layer_2" data-name="Layer 2"><g id="Layer_1-2" data-name="Layer 1"><path class="cls-1" d="M47.5,9a38.3,38.3,0,0,0-23.84,8.3l6.51,6.51-1.43-1.52c5.7-.08,11.13-1.73,16.66-2.82,9.34-1.85,16.64,1.06,21.93,9a53.33,53.33,0,0,1,6,12.49,7.23,7.23,0,0,0,3.68,4.33c3,1.69,5.9,3.69,8.79,5.63Q86,49.23,86,47.5A38.54,38.54,0,0,0,47.5,9Z"/><polygon class="cls-1" points="117.78 52.67 129.5 52.67 123.58 36.72 117.78 52.67"/><path class="cls-1" d="M164.75,44.14a6.21,6.21,0,0,0-4.93,2.3q-2,2.3-2,7t1.52,7.15a6.52,6.52,0,0,0,5.69,3.28,5.83,5.83,0,0,0,4.65-2.33q1.92-2.33,1.92-7.35,0-5.34-1.94-7.7A6.12,6.12,0,0,0,164.75,44.14Z"/><path class="cls-1" d="M77.55,71.19l.15.15,0-.07Z"/><path class="cls-1" d="M58.31,51.95l5,5c8-2.47,10.45-4.27,9.59-10.34C68.77,49.55,63.11,50.71,58.31,51.95Z"/><path class="cls-1" d="M35.93,75c-7.24-1-13.54-4.65-20.24-7.17l-1-.81-1.1-1.3a38.45,38.45,0,0,0,57.73,12l-2.91-2.91A114.93,114.93,0,0,1,35.93,75Z"/><path class="cls-1" d="M26,56.33c8.26,3.18,17.83,3,26.45,2.47l-7-7c-8.1-.47-16-.67-23.24-4.7C19.48,51.93,21.49,54.6,26,56.33Z"/><path class="cls-1" d="M10.7,46.31c6.61-3.44,13.27-7.85,12.15-17.1L17.3,23.66A38.3,38.3,0,0,0,9,47.5c0,.49,0,1,0,1.47C9.51,48.14,10.06,47.26,10.7,46.31Z"/><path class="cls-1" d="M269.17,44.14a5.73,5.73,0,0,0-4.46,2A7.6,7.6,0,0,0,263,51.44h12.32A7.94,7.94,0,0,0,273.45,46,5.67,5.67,0,0,0,269.17,44.14Z"/><path class="cls-1" d="M411.06,43.64a5.73,5.73,0,0,0,3.5-1.54,4.54,4.54,0,0,0,1.28-3.36,4.72,4.72,0,0,0-1.1-3.24A5,5,0,0,0,411.47,34q-1.29-.15-7.42-.15h-5v9.94h5.69Q409.82,43.79,411.06,43.64Z"/><path class="cls-1" d="M370.68,36.4a8.26,8.26,0,0,0-4-2,39.38,39.38,0,0,0-7.12-.41h-3.9V62.44h6.48a23.6,23.6,0,0,0,5.25-.41,8,8,0,0,0,3.5-1.79,9.11,9.11,0,0,0,2.27-4.15,28,28,0,0,0,.88-7.87,25.67,25.67,0,0,0-.88-7.65A9.84,9.84,0,0,0,370.68,36.4Z"/><path class="cls-1" d="M326.05,34.26a41.76,41.76,0,0,0-6.25-.29h-4.19v12.2h4.75q5.13,0,6.86-.67a5.7,5.7,0,0,0,2.71-2.11,5.78,5.78,0,0,0,1-3.34,5.55,5.55,0,0,0-1.38-3.87A6,6,0,0,0,326.05,34.26Z"/><path class="cls-1" d="M413.77,51.56q-1.78-.62-7.7-.62h-7v11.5h8a39.11,39.11,0,0,0,6-.26,5.38,5.38,0,0,0,3.15-1.71,5.28,5.28,0,0,0,1.22-3.65,5.61,5.61,0,0,0-.94-3.28A5.31,5.31,0,0,0,413.77,51.56Z"/><path class="cls-2" d="M119.1,26.69l-16.74,43h9.21l3.55-9.76h17.18L136,69.68h9.44l-17.21-43Zm-1.32,26,5.81-16,5.92,16Z"/><path class="cls-2" d="M166.95,37.84a11.66,11.66,0,0,0-9,4.34V26.69h-8.24v43h7.65V65.11A12.57,12.57,0,0,0,161.8,69a11.4,11.4,0,0,0,5.26,1.33,11.85,11.85,0,0,0,9.22-4.31q3.8-4.31,3.8-12.29,0-7.71-3.72-11.83A12.14,12.14,0,0,0,166.95,37.84Zm2.77,23.71a5.83,5.83,0,0,1-4.65,2.33,6.52,6.52,0,0,1-5.69-3.28q-1.52-2.32-1.52-7.15t2-7a6.21,6.21,0,0,1,4.93-2.3,6.12,6.12,0,0,1,5,2.36q1.94,2.36,1.94,7.7Q171.64,59.21,169.72,61.54Z"/><path class="cls-2" d="M206.62,51.68q0,6.69-.62,8.4A5.89,5.89,0,0,1,203.72,63a6.48,6.48,0,0,1-3.78,1.16,5.09,5.09,0,0,1-3-.87,4.38,4.38,0,0,1-1.66-2.35q-.45-1.48-.45-8V38.54h-8.24v19.7a17.27,17.27,0,0,0,1.11,6.89A8.13,8.13,0,0,0,191.26,69a11.43,11.43,0,0,0,5.63,1.38,12.53,12.53,0,0,0,5.85-1.44A12,12,0,0,0,207.21,65v4.66h7.65V38.54h-8.24Z"/><path class="cls-2" d="M247,53.82q-2.61-2.17-9.19-3.67t-7.7-2.32a1.82,1.82,0,0,1-.82-1.5,2,2,0,0,1,.94-1.67,9,9,0,0,1,4.66-.91,6.92,6.92,0,0,1,4,1,4.8,4.8,0,0,1,1.89,2.79l7.77-1.44a10.64,10.64,0,0,0-4.28-6.16q-3.11-2.08-9.5-2.08-6.71,0-9.91,2.76a8.63,8.63,0,0,0-3.2,6.8,8,8,0,0,0,3.7,7q2.67,1.82,12.64,4a6.58,6.58,0,0,1,2.76,1.08,2.16,2.16,0,0,1,.59,1.55,2.62,2.62,0,0,1-1.08,2.2,8.15,8.15,0,0,1-4.81,1.17,7.23,7.23,0,0,1-4.52-1.25,6.05,6.05,0,0,1-2.14-3.65l-8.27,1.26a11.88,11.88,0,0,0,4.85,7q3.71,2.58,10.07,2.58,7,0,10.59-3.08a9.41,9.41,0,0,0,3.58-7.36A7.62,7.62,0,0,0,247,53.82Z"/><path class="cls-2" d="M279.63,42.43q-4-4.59-11-4.59a13.33,13.33,0,0,0-10.23,4.38q-4,4.38-4,12.12a17.83,17.83,0,0,0,3.08,10.73q3.9,5.31,12,5.31A14.69,14.69,0,0,0,278,68a13.48,13.48,0,0,0,5-6.88l-8.21-1.38a6.52,6.52,0,0,1-2,3.4,5,5,0,0,1-3.25,1.06,6.23,6.23,0,0,1-4.75-2,8.33,8.33,0,0,1-2-5.7h20.64Q283.65,47,279.63,42.43Zm-16.66,9a7.6,7.6,0,0,1,1.73-5.34,5.95,5.95,0,0,1,8.74-.1,7.94,7.94,0,0,1,1.85,5.44Z"/><rect class="cls-2" x="289.99" y="26.69" width="8.68" height="42.99"/><path class="cls-2" d="M331.18,27.34q-2.4-.64-10.32-.65H306.93v43h8.68V53.47h5.66a49.57,49.57,0,0,0,9-.62,12.57,12.57,0,0,0,4.5-2,11.78,11.78,0,0,0,3.65-4.24,14,14,0,0,0,1.44-6.66,13.35,13.35,0,0,0-2.49-8.37A11.27,11.27,0,0,0,331.18,27.34Zm-1.25,16a5.7,5.7,0,0,1-2.71,2.11q-1.73.68-6.86.67h-4.75V34h4.19a41.76,41.76,0,0,1,6.25.29,6,6,0,0,1,3.49,1.91A5.55,5.55,0,0,1,330.92,40,5.78,5.78,0,0,1,329.94,43.38Z"/><path class="cls-2" d="M377.48,31.47a14.39,14.39,0,0,0-6.48-4,31,31,0,0,0-8.18-.82H347v43h16.33a26.24,26.24,0,0,0,7.68-.91,15.26,15.26,0,0,0,6.1-3.43,19,19,0,0,0,4.6-7.59A28.26,28.26,0,0,0,383,48.6a31.71,31.71,0,0,0-1.41-10.16A18.78,18.78,0,0,0,377.48,31.47Zm-4.34,24.62a9.11,9.11,0,0,1-2.27,4.15,8,8,0,0,1-3.5,1.79,23.6,23.6,0,0,1-5.25.41h-6.48V34h3.9a39.38,39.38,0,0,1,7.13.41,8.26,8.26,0,0,1,4,2,9.84,9.84,0,0,1,2.46,4.16,25.67,25.67,0,0,1,.88,7.65A28,28,0,0,1,373.14,56.09Z"/><path class="cls-2" d="M424.28,50.74a11.32,11.32,0,0,0-6-3.9,10.19,10.19,0,0,0,6-9.32,9.74,9.74,0,0,0-1.32-5,11,11,0,0,0-3.3-3.59,11.19,11.19,0,0,0-4.49-1.77,49.66,49.66,0,0,0-7.61-.43H390.38v43H405q8.3-.06,10.47-.29a12.3,12.3,0,0,0,5.82-2A11.49,11.49,0,0,0,425,62.92a12.79,12.79,0,0,0,1.36-5.7A10.35,10.35,0,0,0,424.28,50.74ZM399.06,33.85h5q6.13,0,7.42.15a5,5,0,0,1,3.27,1.51,4.72,4.72,0,0,1,1.1,3.24,4.54,4.54,0,0,1-1.28,3.36,5.73,5.73,0,0,1-3.5,1.54q-1.23.15-6.3.15h-5.69ZM416.2,60.46a5.38,5.38,0,0,1-3.15,1.71,39.11,39.11,0,0,1-6,.26h-8V50.94h7q5.92,0,7.7.62a5.31,5.31,0,0,1,2.71,2,5.61,5.61,0,0,1,.94,3.28A5.28,5.28,0,0,1,416.2,60.46Z"/><path class="cls-2" d="M47.5,0A47.5,47.5,0,1,0,95,47.5,47.5,47.5,0,0,0,47.5,0Zm4.93,58.8c-8.62.5-18.18.72-26.45-2.47-4.49-1.73-6.51-4.4-3.77-9.21,7.21,4,15.14,4.23,23.24,4.7ZM63.34,57l-5-5c4.79-1.24,10.46-2.4,14.62-5.32C73.79,52.71,71.37,54.5,63.34,57Zm-46-33.31,5.55,5.55C24,38.46,17.31,42.87,10.7,46.31c-.64,1-1.19,1.83-1.66,2.66,0-.49,0-1,0-1.47A38.3,38.3,0,0,1,17.3,23.66ZM47.5,86A38.53,38.53,0,0,1,13.6,65.74L14.7,67l1,.81c6.7,2.52,13,6.14,20.24,7.17a114.93,114.93,0,0,0,32.49-.24l2.91,2.91A38.3,38.3,0,0,1,47.5,86Zm30-14.81.2.08,0,.07Zm8.3-20.27C83,49,80.09,47,77.06,45.29A7.23,7.23,0,0,1,73.37,41a53.33,53.33,0,0,0-6-12.49c-5.29-7.93-12.59-10.84-21.93-9-5.52,1.09-11,2.74-16.66,2.82l1.43,1.52L23.66,17.3A38.47,38.47,0,0,1,86,47.5Q86,49.23,85.85,50.92Z"/></g></g></svg>